<svg width="30" height="30" viewBox="0 0 30 30" xmlns="http://www.w3.org/2000/svg"><title>0C7FD164-F10E-4038-8027-10B4344BBC8E</title><g fill="none" fill-rule="evenodd"><ellipse fill="#BA68C8" cx="14.757" cy="14.758" rx="14.757" ry="14.758"/><path d="M19.953 10.953L15 6l-4.953 4.953a7.003 7.003 0 0 0 0 9.896A6.982 6.982 0 0 0 15 22.896a6.982 6.982 0 0 0 4.953-2.047 7.003 7.003 0 0 0 0-9.896zM15 21.154c-1.4 0-2.721-.543-3.71-1.54a5.202 5.202 0 0 1-1.54-3.71c0-1.4.543-2.721 1.54-3.71L15 8.476v12.679z" fill="#FFF"/></g></svg>