<svg width="30" height="30" viewBox="0 0 30 30" xmlns="http://www.w3.org/2000/svg"><title>89C8278E-8A6D-4D28-BAC2-CD7E9DA164E6</title><g fill="none" fill-rule="evenodd"><ellipse fill="#BA68C8" cx="14.757" cy="14.758" rx="14.757" ry="14.758"/><path d="M14.5 5C9.256 5 5 9.256 5 14.5S9.256 24 14.5 24s9.5-4.256 9.5-9.5S19.744 5 14.5 5zm-.95 17.034C9.807 21.567 6.9 18.375 6.9 14.5a7.589 7.589 0 0 1 6.65-7.534v15.067zm1.9-15.067c.979.123 1.9.427 2.727.883H15.45v-.883zm0 2.783h4.978c.238.294.456.617.646.95H15.45v-.95zm0 2.85h6.403c.076.314.142.627.18.95H15.45v-.95zm0 9.434v-.884h2.727a7.607 7.607 0 0 1-2.727.884zm4.978-2.784H15.45v-.95h5.624c-.19.332-.409.655-.646.95zm1.425-2.85H15.45v-.95h6.584a7.978 7.978 0 0 1-.181.95z" fill="#FFF"/></g></svg>