<svg width="30" height="30" viewBox="0 0 30 30" xmlns="http://www.w3.org/2000/svg"><title>DF70AF99-FDC1-4833-9EA2-72BA95C5CF84</title><g fill="none" fill-rule="evenodd"><ellipse fill="#F9B74E" cx="14.757" cy="14.758" rx="14.757" ry="14.758"/><path d="M18.604 11.366a2.681 2.681 0 0 0-3.437 1.046l-.007.011-.002.004a.27.27 0 0 1-.455 0l-.002-.004a.108.108 0 0 1-.007-.01v-.001a2.68 2.68 0 0 0-3.437-1.046 2.656 2.656 0 0 0-1.28 3.541c.497 1.05 3.293 3.643 4.45 4.691h.001a.745.745 0 0 0 1.003.002c1.156-1.046 3.955-3.643 4.452-4.693a2.655 2.655 0 0 0-1.279-3.54" fill="#FFF"/></g></svg>