<svg width="30" height="30" viewBox="0 0 30 30" xmlns="http://www.w3.org/2000/svg"><title>D6913291-88C9-4C95-96F4-FC543833A108</title><g fill="none" fill-rule="evenodd"><ellipse fill="#BA68C8" cx="14.757" cy="14.758" rx="14.757" ry="14.758"/><path d="M15 23.667a8 8 0 0 0 8-8 8 8 0 0 0-8 8zM9.311 13.222a2.223 2.223 0 0 0 3.485 1.831l-.018.17a2.223 2.223 0 0 0 4.444 0l-.018-.17a2.19 2.19 0 0 0 1.263.391 2.223 2.223 0 0 0 2.222-2.222c0-.889-.525-1.644-1.271-2a2.214 2.214 0 0 0 1.27-2 2.223 2.223 0 0 0-3.484-1.83l.018-.17a2.223 2.223 0 0 0-4.444 0l.018.17A2.19 2.19 0 0 0 11.533 7a2.223 2.223 0 0 0-2.222 2.222c0 .89.525 1.645 1.271 2a2.214 2.214 0 0 0-1.27 2zM15 9a2.223 2.223 0 1 1-.002 4.446A2.223 2.223 0 0 1 15 9zm-8 6.667a8 8 0 0 0 8 8 8 8 0 0 0-8-8z" fill="#FFF"/></g></svg>