<svg width="30" height="30" viewBox="0 0 30 30" xmlns="http://www.w3.org/2000/svg"><title>1155EF32-54D3-4329-AF04-4EB5506A2E39</title><g fill="none" fill-rule="evenodd"><ellipse fill="#FFF" cx="14.757" cy="14.758" rx="14.757" ry="14.758"/><path d="M14.755 0C6.61 0 0 6.61 0 14.755S6.61 29.51 14.755 29.51 29.51 22.9 29.51 14.755 22.9 0 14.755 0zm0 3.689c1.83 0 3.32 1.49 3.32 3.32 0 1.83-1.49 3.32-3.32 3.32-1.83 0-3.32-1.49-3.32-3.32 0-1.83 1.49-3.32 3.32-3.32zm7.378 15.581v3.689a10.472 10.472 0 0 1-2.214 1.55v-1.004c0-.502-.25-.96-.678-1.358-.96-.915-2.79-1.505-4.486-1.505-1.416 0-2.892.413-3.91 1.077l-.25.177-.31.251c1.15.694 2.404 1.063 3.747 1.21l1.962.221c.546.06.974.532.974 1.107 0 .428-.236.782-.59.974-.413.221-.944.133-1.402.133-.516 0-1.018-.015-1.52-.074-.737-.089-1.46-.25-2.154-.487a11.118 11.118 0 0 1-2.095-.944 9.79 9.79 0 0 1-.959-.635l-.457-.354c-.06-.03-.413-.265-.413-.34v-6.314c0-2.332 3.88-4.102 7.377-4.102s7.378 1.77 7.378 4.102v2.626z" fill="#F36C60"/></g></svg>