<svg width="30" height="30" viewBox="0 0 30 30" xmlns="http://www.w3.org/2000/svg"><title>6E57C081-C19D-4E31-B2BB-0B8F2CEF7C56</title><g fill="none" fill-rule="evenodd"><ellipse fill="#F9B74E" cx="14.757" cy="14.758" rx="14.757" ry="14.758"/><path d="M21 16.8c0-4-6-10.8-6-10.8s-1.33 1.51-2.73 3.52l8.59 8.59c.09-.42.14-.86.14-1.31zm-.88 3.12L15.5 15.3 8.27 8.07 7 9.35l3.32 3.32C9.55 14.12 9 15.59 9 16.8c0 3.31 2.69 6 6 6 1.52 0 2.9-.57 3.96-1.5l2.63 2.63 1.27-1.27-2.74-2.74z" fill="#FFF"/></g></svg>