<svg width="30" height="30" viewBox="0 0 30 30" xmlns="http://www.w3.org/2000/svg"><title>2F8DF8F3-526B-423F-BAB0-11DE09A81D72</title><g fill="none" fill-rule="evenodd"><ellipse fill="#BA68C8" cx="14.757" cy="14.758" rx="14.757" ry="14.758"/><path d="M18.528 10.472A5.676 5.676 0 0 0 14.5 8.8v5.7l-4.028 4.028c2.223 2.223 5.833 2.223 8.066 0a5.69 5.69 0 0 0-.01-8.056zM14.5 5C9.256 5 5 9.256 5 14.5S9.256 24 14.5 24s9.5-4.256 9.5-9.5S19.744 5 14.5 5zm0 17.1a7.598 7.598 0 0 1-7.6-7.6c0-4.199 3.401-7.6 7.6-7.6s7.6 3.401 7.6 7.6-3.401 7.6-7.6 7.6z" fill="#FFF"/></g></svg>