<svg width="30" height="30" viewBox="0 0 30 30" xmlns="http://www.w3.org/2000/svg"><title>BD9B6330-340A-4C83-988D-4CCAB96C6A16</title><g fill="none" fill-rule="evenodd"><ellipse fill="#42BD41" cx="14.757" cy="14.758" rx="14.757" ry="14.758"/><path d="M14.5 9.75a4.752 4.752 0 0 0-4.75 4.75 4.752 4.752 0 0 0 4.75 4.75 4.752 4.752 0 0 0 4.75-4.75 4.752 4.752 0 0 0-4.75-4.75zm0-4.75C9.256 5 5 9.256 5 14.5S9.256 24 14.5 24s9.5-4.256 9.5-9.5S19.744 5 14.5 5zm0 17.1a7.598 7.598 0 0 1-7.6-7.6c0-4.199 3.401-7.6 7.6-7.6s7.6 3.401 7.6 7.6-3.401 7.6-7.6 7.6z" fill="#FFF"/></g></svg>