<svg width="30" height="30" viewBox="0 0 30 30" xmlns="http://www.w3.org/2000/svg"><title>F5474D3A-269F-4CF6-9895-098CA207B8A1</title><g fill="none" fill-rule="evenodd"><ellipse fill="#5677FC" cx="14.757" cy="14.758" rx="14.757" ry="14.758"/><path d="M15.35 6v2.575c2.882.417 5.1 2.882 5.1 5.883 0 .764-.153 1.487-.408 2.158l2.21 1.301a8.395 8.395 0 0 0 .748-3.46c0-4.402-3.358-8.032-7.65-8.457zm-.85 14.407c-3.29 0-5.95-2.66-5.95-5.95 0-3 2.218-5.465 5.1-5.882V6A8.492 8.492 0 0 0 6 14.457c0 4.692 3.8 8.5 8.492 8.5a8.478 8.478 0 0 0 6.85-3.476l-2.21-1.3a5.908 5.908 0 0 1-4.632 2.226z" fill="#FFF"/></g></svg>